<?xml version="1.0" encoding="UTF-8"?>
<svg width="60px" height="60px" viewBox="0 0 60 60" version="1.1" xmlns="http://www.w3.org/2000/svg" xmlns:xlink="http://www.w3.org/1999/xlink">
    <!-- Generator: Sketch 61.2 (89653) - https://sketch.com -->
    <title>icon_wangluo</title>
    <desc>Created with Sketch.</desc>
    <g id="页面-1" stroke="none" stroke-width="1" fill="none" fill-rule="evenodd">
        <g id="无线端index关于我们滑动交互" transform="translate(-49.000000, -4285.000000)" fill="#F04848" fill-rule="nonzero">
            <g id="解决方案*" transform="translate(0.000000, 3615.000000)">
                <g id="解决方案">
                    <g id="icon_wangluo" transform="translate(49.000000, 670.000000)">
                        <path d="M39.0334821,24.9977679 L20.0290179,24.9977679 C18.375,24.9977679 17.0290179,23.6517857 17.0290179,21.9977679 L17.0290179,3 C17.0290179,1.34598214 18.375,0 20.0290179,0 L39.0267857,0 C40.6808036,0 42.0267857,1.34598214 42.0267857,3 L42.0267857,21.9977679 C42.0267857,23.6517857 40.6875,24.9977679 39.0334821,24.9977679 L39.0334821,24.9977679 Z M20.0290179,2.8125 C19.9285714,2.8125 19.8415179,2.89285714 19.8415179,3 L19.8415179,21.9977679 C19.8415179,22.0982143 19.921875,22.1852679 20.0290179,22.1852679 L39.0267857,22.1852679 C39.1272321,22.1852679 39.2142857,22.1049107 39.2142857,21.9977679 L39.2142857,3 C39.2142857,2.89955357 39.1339286,2.8125 39.0267857,2.8125 L20.0290179,2.8125 Z M22.0513393,59.7321429 L3.05357143,59.7321429 C1.39955357,59.7321429 0.0535714286,58.3861607 0.0535714286,56.7321429 L0.0535714286,37.734375 C0.0535714286,36.0803571 1.39955357,34.734375 3.05357143,34.734375 L22.0513393,34.734375 C23.7053571,34.734375 25.0513393,36.0803571 25.0513393,37.734375 L25.0513393,56.7321429 C25.0513393,58.3861607 23.7053571,59.7321429 22.0513393,59.7321429 L22.0513393,59.7321429 Z M3.05357143,37.546875 C2.953125,37.546875 2.86607143,37.6272321 2.86607143,37.734375 L2.86607143,56.7321429 C2.86607143,56.8325893 2.94642857,56.9196429 3.05357143,56.9196429 L22.0513393,56.9196429 C22.1517857,56.9196429 22.2388393,56.8392857 22.2388393,56.7321429 L22.2388393,37.734375 C22.2388393,37.6339286 22.1584821,37.546875 22.0513393,37.546875 L3.05357143,37.546875 Z M56.0089286,59.7321429 L37.0111607,59.7321429 C35.3571429,59.7321429 34.0111607,58.3861607 34.0111607,56.7321429 L34.0111607,37.734375 C34.0111607,36.0803571 35.3571429,34.734375 37.0111607,34.734375 L56.0089286,34.734375 C57.6629464,34.734375 59.0089286,36.0803571 59.0089286,37.734375 L59.0089286,56.7321429 C59.0089286,58.3861607 57.6629464,59.7321429 56.0089286,59.7321429 L56.0089286,59.7321429 Z M37.0111607,37.546875 C36.9107143,37.546875 36.8236607,37.6272321 36.8236607,37.734375 L36.8236607,56.7321429 C36.8236607,56.8325893 36.9040179,56.9196429 37.0111607,56.9196429 L56.0089286,56.9196429 C56.109375,56.9196429 56.1964286,56.8392857 56.1964286,56.7321429 L56.1964286,37.734375 C56.1964286,37.6339286 56.1160714,37.546875 56.0089286,37.546875 L37.0111607,37.546875 Z" id="形状"></path>
                        <polygon id="路径" points="28.125 23.5915179 30.9375 23.5915179 30.9375 29.5848214 28.125 29.5848214"></polygon>
                        <path d="M47.9196429,36.3147321 L45.1071429,36.3147321 L45.1071429,31.3191964 L13.9553571,31.3191964 L13.9553571,36.3147321 L11.1428571,36.3147321 L11.1428571,30.2410714 C11.1428571,29.2834821 11.9196429,28.5066964 12.8772321,28.5066964 L46.1785714,28.5066964 C47.1361607,28.5066964 47.9129464,29.2834821 47.9129464,30.2410714 L47.9129464,36.3147321 L47.9196429,36.3147321 Z" id="路径"></path>
                    </g>
                </g>
            </g>
        </g>
    </g>
</svg>