<?xml version="1.0" encoding="UTF-8"?>
<svg width="57px" height="56px" viewBox="0 0 57 56" version="1.1" xmlns="http://www.w3.org/2000/svg" xmlns:xlink="http://www.w3.org/1999/xlink">
    <!-- Generator: Sketch 61.2 (89653) - https://sketch.com -->
    <title>icon_yunweizhongxin</title>
    <desc>Created with Sketch.</desc>
    <g id="页面-1" stroke="none" stroke-width="1" fill="none" fill-rule="evenodd">
        <g id="无线端index关于我们滑动交互" transform="translate(-364.000000, -4490.000000)" fill="#F04848" fill-rule="nonzero">
            <g id="解决方案*" transform="translate(0.000000, 3615.000000)">
                <g id="解决方案">
                    <g id="icon_yunweizhongxin" transform="translate(364.000000, 875.000000)">
                        <path d="M28.0893942,47.0467139 C19.5221766,47.0245503 11.9983083,41.3490419 9.6237419,33.1174477 C9.34845353,32.1450989 8.3370437,31.5800197 7.36469482,31.855308 C6.39234594,32.1305964 5.82726674,33.1420062 6.10255512,34.1143551 C8.46214512,42.2870537 15.1507717,48.4828342 23.4798406,50.211209 L20.4525345,52.5708615 C19.8344133,53.050573 19.5898499,53.8703117 19.8440866,54.6102851 C20.0983233,55.3502586 20.7950563,55.846591 21.5774851,55.8451112 C21.9847768,55.845878 22.3806754,55.7106931 22.7024357,55.4609785 L29.1045935,50.4855872 C29.2714846,50.3527964 29.4138671,50.1918423 29.5253067,50.0099984 C29.7881432,49.6907712 29.9305652,49.2894003 29.9277696,48.8759018 C29.9277696,48.3891822 29.7337617,47.9225297 29.3887418,47.5792263 C29.0437219,47.2359229 28.5761077,47.0442803 28.0893942,47.0467139 L28.0893942,47.0467139 Z M7.63907298,29.5688231 C8.38093501,29.3182541 8.88102698,28.6232734 8.88292076,27.8402405 C8.8840159,26.9530198 8.94512836,26.0668893 9.06583959,25.187918 C10.1841399,17.452993 15.8450553,11.1498577 23.415819,9.20996127 C24.3957446,8.95740312 24.9853924,7.95827762 24.7328343,6.978352 C24.4802761,5.99842638 23.4811506,5.40877855 22.501225,5.6613367 C13.916612,7.87220035 7.3641821,14.8159262 5.65440405,23.514211 L3.27645974,20.4594671 C2.87455361,19.9431975 2.22775043,19.680559 1.57969471,19.7704851 C0.931638992,19.8604112 0.380785807,20.2892399 0.134636226,20.8954357 C-0.111513354,21.5016314 -0.0155633536,22.1930986 0.386342791,22.7093683 L5.35258803,29.1115261 C5.88827878,29.8200077 6.86530625,30.0232294 7.63907298,29.587115 L7.63907298,29.5688231 Z M55.874759,33.3643881 L50.9085138,26.9622303 C50.7729473,26.7802955 50.6018053,26.6278234 50.4054871,26.5140792 C49.8793107,25.9983226 49.0950597,25.8486054 48.4158908,26.1342558 C47.736722,26.4199063 47.2952358,27.0851541 47.2958676,27.8219486 C47.3072064,36.5752587 41.3986389,44.228941 32.9275963,46.433936 C32.0292844,46.6589781 31.4408813,47.5198732 31.557468,48.4385765 C31.6740547,49.3572799 32.4588445,50.0439119 33.3848933,50.0374872 C33.5426468,50.0386811 33.699752,50.0171177 33.8513362,49.9734146 C42.3001607,47.7684308 48.755488,40.9440248 50.4878006,32.3857725 L52.993788,35.6142893 C53.3852173,36.159376 54.0436968,36.4463621 54.7094477,36.3620277 C55.3751985,36.2776933 55.9413189,35.8355802 56.1844669,35.210108 C56.4276148,34.5846357 56.3087864,33.8762383 55.874759,33.3643881 L55.874759,33.3643881 Z M27.6961188,8.58803738 C27.8268297,8.6021707 27.9586833,8.6021707 28.0893942,8.58803738 C36.9927679,8.56444136 44.736964,14.68247 46.774549,23.3495841 C46.9691213,24.1728902 47.7028802,24.7553586 48.5488613,24.7580588 C48.6932704,24.7564251 48.8371998,24.7411135 48.9787205,24.7123291 C49.9544512,24.4651005 50.5470943,23.4759996 50.3048817,22.4990117 C48.2487002,13.8945424 41.393629,7.26060258 32.7263856,5.48756382 L35.5341891,3.30168423 C36.3398496,2.68291674 36.4913564,1.52818972 35.8725889,0.722529224 C35.2538214,-0.0831312698 34.0990944,-0.23463799 33.2934339,0.384129492 L26.8912761,5.35037473 C26.3257129,5.7941046 26.0724854,6.52796079 26.2440489,7.22604666 C26.4156124,7.92413253 26.980156,8.45701107 27.6869728,8.58803738 L27.6961188,8.58803738 Z M16.4649012,27.9225539 C16.461205,32.6435475 19.3022156,36.901739 23.6627835,38.7109493 C28.0233513,40.5201595 33.04442,39.5239639 36.3839759,36.1870252 C39.7235318,32.8500865 40.7236637,27.8298004 38.9178727,23.4678154 C37.1120817,19.1058304 32.8561189,16.2614808 28.1351239,16.2614808 C21.6954962,16.2665157 16.4749884,21.4829322 16.4649012,27.9225539 Z M36.1378264,27.9225539 C36.1415201,31.1647036 34.1908542,34.0894961 31.1962048,35.3319224 C28.2015554,36.5743487 24.7533021,35.8894708 22.4607545,33.5969233 C20.168207,31.3043758 19.4833292,27.8561225 20.7257555,24.8614731 C21.9681817,21.8668236 24.8929742,19.9161577 28.1351239,19.9198515 C32.5507185,19.9299151 36.1277628,23.5069593 36.1378264,27.9225539 L36.1378264,27.9225539 Z" id="形状"></path>
                        <path d="M23.7816469,27.9225539 C23.7779556,29.6841947 24.8362942,31.2744316 26.462777,31.9511483 C28.0892597,32.627865 29.9632618,32.2576617 31.2102418,31.0133014 C32.4572218,29.7689411 32.8313654,27.8957218 32.1580708,26.2678195 C31.4847762,24.6399171 29.8967685,23.5782326 28.1351239,23.5782326 C25.7343375,23.5782326 23.7867002,25.5217728 23.7816469,27.9225539 L23.7816469,27.9225539 Z" id="路径"></path>
                    </g>
                </g>
            </g>
        </g>
    </g>
</svg>