<?xml version="1.0" encoding="UTF-8"?>
<svg width="64px" height="48px" viewBox="0 0 64 48" version="1.1" xmlns="http://www.w3.org/2000/svg" xmlns:xlink="http://www.w3.org/1999/xlink">
    <!-- Generator: Sketch 61.2 (89653) - https://sketch.com -->
    <title>icon_dashuju</title>
    <desc>Created with Sketch.</desc>
    <g id="页面-1" stroke="none" stroke-width="1" fill="none" fill-rule="evenodd">
        <g id="无线端index关于我们滑动交互" transform="translate(-361.000000, -4292.000000)">
            <g id="解决方案*" transform="translate(0.000000, 3615.000000)">
                <g id="解决方案">
                    <g id="icon_dashuju" transform="translate(361.000000, 677.000000)">
                        <path d="M39.899228,42.1689467 L13.870423,42.1689467 C6.38078469,42.1689467 0.000722380243,35.8351167 0.000722380243,28.299246 C0.000722380243,20.7633753 5.77976432,14.9843334 13.315635,14.4295454 C13.870423,6.33888663 21.4062937,0.0050566617 29.4969525,0.0050566617 C38.1886315,0.0050566617 45.0772495,6.33888663 45.6782699,14.4295454 C51.4573118,14.4295454 56.0805454,17.8969705 58.3921622,23.1212244 C58.9931825,24.2770328 58.3921622,24.8780532 57.2363538,25.4328412 C56.0805454,26.0338616 55.479525,25.4328412 54.924737,24.2770328 C53.1679083,20.2085873 49.7004831,17.8969705 45.0772495,17.8969705 L43.9214411,17.8969705 C43.3666531,17.8969705 42.7656328,17.8969705 42.7656328,17.3421825 C42.2108447,16.7873945 42.2108447,16.7873945 42.2108447,16.1863741 C42.2108447,9.25152377 36.4318028,3.47248183 29.4969525,3.47248183 C22.5621021,3.47248183 16.7830602,9.25152377 16.7830602,16.1401418 C16.7830602,16.6949298 16.7830602,17.2959502 16.2282722,17.2959502 C15.6272518,17.8969705 15.6272518,17.8969705 15.0262314,17.8969705 L13.870423,17.8969705 C8.0913811,17.8969705 3.46814755,22.5202041 3.46814755,28.299246 C3.46814755,34.078288 8.0913811,38.7015215 13.870423,38.7015215 L39.8529956,38.7015215 C41.008804,38.7015215 41.6098244,39.2563095 41.6098244,40.4583503 C41.6098244,41.0131383 41.0550363,42.1689467 39.899228,42.1689467 L39.899228,42.1689467 Z" id="路径" fill="#F04848" fill-rule="nonzero"></path>
                        <circle id="椭圆形" stroke="#F04848" stroke-width="3" cx="40" cy="27" r="4"></circle>
                        <circle id="椭圆形备份" stroke="#F04848" stroke-width="3" cx="58" cy="31" r="4"></circle>
                        <circle id="椭圆形备份-2" stroke="#F04848" stroke-width="3" cx="48" cy="42" r="4"></circle>
                        <line x1="41.5" y1="31" x2="45.4628906" y2="38" id="路径-3" stroke="#F04848" stroke-width="3"></line>
                        <line x1="56.4663086" y1="33.5" x2="50.7587891" y2="39.1977539" id="路径-4" stroke="#F04848" stroke-width="3"></line>
                        <line x1="44" y1="27.5" x2="54" y2="29.9458008" id="路径-5" stroke="#F04848" stroke-width="3"></line>
                    </g>
                </g>
            </g>
        </g>
    </g>
</svg>