<?xml version="1.0" encoding="UTF-8"?>
<svg width="66px" height="46px" viewBox="0 0 66 46" version="1.1" xmlns="http://www.w3.org/2000/svg" xmlns:xlink="http://www.w3.org/1999/xlink">
    <!-- Generator: Sketch 61.2 (89653) - https://sketch.com -->
    <title>icon_siyouyunlan</title>
    <desc>Created with Sketch.</desc>
    <g id="页面-1" stroke="none" stroke-width="1" fill="none" fill-rule="evenodd">
        <g id="无线端index关于我们滑动交互" transform="translate(-47.000000, -5830.000000)" fill="#F04848" fill-rule="nonzero">
            <g id="解决方案*" transform="translate(0.000000, 3615.000000)">
                <g id="解决方案">
                    <g id="icon_siyouyunlan" transform="translate(47.000000, 2215.000000)">
                        <path d="M59.4178221,35.3543891 C61.1775092,34.0885496 62.4405105,32.0336892 62.4405105,29.7120375 C62.4405105,25.8747843 59.1992803,22.7527588 55.3449979,22.7527588 C51.4907154,22.7527588 48.2211033,25.8747844 48.2211033,29.7120375 C48.2211033,32.0336892 49.5068102,34.0885496 51.2693355,35.3515509 C47.7140567,36.9399589 45.4210975,40.4660502 45.4112803,44.3600136 C45.4112803,44.9673895 46.223007,45.458399 46.8303829,45.458399 C47.4405969,45.458399 48.2211033,44.9673895 48.2211033,44.3600136 C48.2211033,40.1197353 51.082014,36.9437839 55.3449979,36.9437839 C59.6023054,36.9437839 62.4405104,40.1225735 62.4405105,44.3600136 C62.4405105,44.9673895 63.2834574,45.458399 63.8936714,45.458399 C64.5038855,45.458399 65.2787155,44.9673895 65.2787155,44.3600136 C65.2787155,40.3553063 62.8662412,36.904049 59.4178221,35.3515509 L59.4178221,35.3543891 Z M51.0876904,29.8482714 C51.0876904,27.5010758 52.9978024,25.5909638 55.3449979,25.5909638 C57.6921934,25.5909638 59.6023055,27.5010758 59.6023055,29.8482714 C59.6023055,32.195467 57.6921935,34.1055789 55.3449979,34.1055789 C52.9978023,34.1055789 51.0876904,32.1954669 51.0876904,29.8482714 L51.0876904,29.8482714 Z" id="形状"></path>
                        <path d="M38.9032762,42.3136678 L15.7719053,42.3136678 C9.51933967,42.3136678 4.16364677,37.568189 3.57897652,31.5057831 C3.27416602,28.1395344 4.40485486,24.8010647 6.69248741,22.312837 C8.96120284,19.8396152 12.1631324,18.431178 15.5193051,18.4301725 L16.6091758,18.4301725 L18.9989444,18.5834356 L19.7510688,16.318548 C22.4246579,8.61565958 29.4634063,3.63744799 37.6601424,3.63744799 C48.2693528,3.63744799 54.4906982,11.859728 55.6316566,17.8057674 C55.844522,19.1794587 56.4746035,19.8663043 57.519063,19.8663043 C58.5635224,19.8663043 59.125487,19.1794587 59.2021185,17.8057674 C59.2021185,13.4150643 55.6316566,8.58160111 53.7726323,6.78217913 C51.913608,4.97991894 49.2371807,3.01304284 46.5238567,1.85789344 C43.7238875,0.658700731 40.7089403,0.0425776261 37.6629806,0.0470937266 C32.8266793,0.0470937266 28.2571692,1.50311782 24.448298,4.25333849 C20.7577341,6.92285056 17.9797767,10.6651149 16.4928094,14.9704006 L15.6498625,14.9704006 C10.959419,14.9620113 6.51251302,17.0578592 3.53356523,20.6808692 C0.620620004,24.1844037 -0.576257956,28.8053934 0.269629477,33.2824994 C0.954825918,36.8889949 2.91290735,40.1292974 5.78710002,42.413005 C8.66586823,44.6913132 12.2312301,45.9277855 15.9024628,45.9210539 L38.9117908,45.9210539 C39.9619267,45.9210539 40.69986,45.1802549 40.69986,44.1244426 C40.6913454,43.0544393 39.9534121,42.3136678 38.9032762,42.3136678 Z" id="路径"></path>
                    </g>
                </g>
            </g>
        </g>
    </g>
</svg>