<?xml version="1.0" encoding="UTF-8"?>
<svg width="49px" height="60px" viewBox="0 0 49 60" version="1.1" xmlns="http://www.w3.org/2000/svg" xmlns:xlink="http://www.w3.org/1999/xlink">
    <!-- Generator: Sketch 61.2 (89653) - https://sketch.com -->
    <title>icon_xingzhuang</title>
    <desc>Created with Sketch.</desc>
    <g id="页面-1" stroke="none" stroke-width="1" fill="none" fill-rule="evenodd">
        <g id="无线端index关于我们滑动交互" transform="translate(-55.000000, -4489.000000)" fill="#F04848" fill-rule="nonzero">
            <g id="解决方案*" transform="translate(0.000000, 3615.000000)">
                <g id="解决方案">
                    <g id="icon_xingzhuang" transform="translate(55.000000, 874.000000)">
                        <path d="M12.050944,33.6646932 C11.9208166,33.6642473 11.7914598,33.6446934 11.6670154,33.6066546 C4.38427734,31.3879046 0.0301106567,27.410226 0.0301106567,22.9861188 C0.0301106567,18.6557617 4.22356305,14.7316545 11.2443964,12.4935593 C11.57747,12.3853808 11.9399798,12.4149573 12.251113,12.5756955 C12.5622461,12.7364337 12.7961374,13.0149709 12.9006464,13.3492141 C13.0088249,13.6822877 12.9792484,14.0447975 12.8185102,14.3559307 C12.6577721,14.6670639 12.3792348,14.9009552 12.0449916,15.0054641 C6.25630115,16.8536784 2.66403925,19.910226 2.66403925,22.9861188 C2.66403925,26.1438569 6.40511066,29.2450474 12.4274321,31.0873093 C13.1253488,31.2986188 13.5137416,32.0396903 13.3039202,32.7376069 C13.1365039,33.2892018 12.6273845,33.6659018 12.050944,33.6646932 L12.050944,33.6646932 Z M27.3589797,35.2688569 C26.649019,35.2661313 26.0686994,34.7017181 26.0462484,33.9921072 C26.0237974,33.2824963 26.5672778,32.6825278 27.2756464,32.6349284 C37.722075,31.956357 45.9065988,27.7182617 45.9065988,22.9801665 C45.9065988,18.5739165 38.6699916,14.487607 29.065825,13.4771903 C28.3433397,13.3960323 27.8198139,12.7499086 27.8902297,12.0262974 C27.9713878,11.3038122 28.6175114,10.7802864 29.3411226,10.8507022 C40.644694,12.0396903 48.5420154,17.0262974 48.5420154,22.972726 C48.5420154,29.3030831 39.6670154,34.4697498 27.4348726,35.2569522 C27.4155273,35.2688569 27.3902297,35.2688569 27.3589797,35.2688569 L27.3589797,35.2688569 Z M24.2890392,47.9474284 C10.6818964,47.9489165 0.0301106567,42.5084403 0.0301106567,35.5634998 C0.0301106567,34.8361605 0.619735655,34.2465355 1.34707495,34.2465355 C2.07441425,34.2465355 2.66403925,34.8361605 2.66403925,35.5634998 C2.66403925,40.8447498 12.5688011,45.3149879 24.2890392,45.3149879 C36.0092773,45.3149879 45.9140392,40.8507022 45.9140392,35.5634998 C45.9140392,34.8361605 46.5036642,34.2465355 47.2310035,34.2465355 C47.9583428,34.2465355 48.5479678,34.8361605 48.5479678,35.5634998 C48.5479678,42.5069522 37.8961821,47.9489165 24.2890392,47.9489165 L24.2890392,47.9474284 Z M24.2890392,59.9057617 C10.6818964,59.9057617 0.0301106567,54.4637974 0.0301106567,47.520345 C0.0301106567,46.7930057 0.619735655,46.2033807 1.34707495,46.2033807 C2.07441425,46.2033807 2.66403925,46.7930057 2.66403925,47.520345 C2.66403925,52.8030831 12.5688011,57.2718331 24.2890392,57.2718331 C36.0092773,57.2718331 45.9140392,52.8075474 45.9140392,47.520345 C45.9140392,46.7930057 46.5036642,46.2033807 47.2310035,46.2033807 C47.9583428,46.2033807 48.5479678,46.7930057 48.5479678,47.520345 C48.5479678,54.4637974 37.8961821,59.9057617 24.2890392,59.9057617 L24.2890392,59.9057617 Z M1.34707495,48.8373102 C0.997673216,48.8377048 0.662468366,48.6990806 0.415403872,48.4520161 C0.168339377,48.2049516 0.0297151811,47.8697468 0.0301098129,47.520345 L0.0301098129,22.9801665 C0.0301098129,22.2528272 0.619735655,21.6632022 1.34707495,21.6632022 C2.07441425,21.6632022 2.66403925,22.2528272 2.66403925,22.9801665 L2.66403925,47.520345 C2.66403925,48.2495117 2.07624164,48.8373102 1.34707495,48.8373102 Z M47.2310035,48.8373102 C46.8816018,48.8377048 46.546397,48.6990806 46.2993325,48.4520161 C46.052268,48.2049516 45.9136438,47.8697468 45.9140384,47.520345 L45.9140384,22.9801665 C45.9140384,22.2528272 46.5036642,21.6632022 47.2310035,21.6632022 C47.9583428,21.6632022 48.5479678,22.2528272 48.5479678,22.9801665 L48.5479678,47.520345 C48.5479678,48.2495117 47.9601702,48.8373102 47.2310035,48.8373102 Z M29.7875511,9.59028552 C27.1481558,9.58537195 25.0097266,7.44694279 25.004813,4.80754742 C25.0097266,2.16815206 27.1481558,0.0297228987 29.7875511,0.0248093262 C32.4269465,0.0297228987 34.5653757,2.16815206 34.5702892,4.80754742 C34.5653757,7.44694279 32.4269465,9.58537195 29.7875511,9.59028552 L29.7875511,9.59028552 Z M29.7875511,2.65873792 C28.6040838,2.65873792 27.644694,3.61812774 27.644694,4.80159506 C27.644694,5.98506239 28.6040838,6.94445221 29.7875511,6.94445221 C30.9710185,6.94445221 31.9304083,5.98506239 31.9304083,4.80159506 C31.9304083,3.61812774 30.9710185,2.65873792 29.7875511,2.65873792 Z M18.7771345,18.4712379 C16.1377391,18.4663243 13.9993099,16.3278952 13.9943964,13.6884998 C13.9993099,11.0491045 16.1377391,8.91067529 18.7771345,8.90576172 C21.4165298,8.91067529 23.554959,11.0491045 23.5598726,13.6884998 C23.554959,16.3278952 21.4165298,18.4663243 18.7771345,18.4712379 L18.7771345,18.4712379 Z M18.7771345,11.5396903 C17.5936671,11.5396903 16.6342773,12.4990801 16.6342773,13.6825475 C16.6342773,14.8660148 17.5936671,15.8254046 18.7771345,15.8254046 C19.9606018,15.8254046 20.9199916,14.8660148 20.9199916,13.6825475 C20.9199916,12.4990801 19.9606018,11.5396903 18.7771345,11.5396903 Z M18.7771345,39.6230236 C16.1377391,39.61811 13.9993099,37.4796809 13.9943964,34.8402855 C13.9993099,32.2008902 16.1377391,30.062461 18.7771345,30.0575474 C21.4165298,30.062461 23.554959,32.2008902 23.5598726,34.8402855 C23.5574114,37.4806987 21.4175477,39.6205625 18.7771345,39.6230236 L18.7771345,39.6230236 Z M18.7771345,32.6989165 C17.9983701,32.6783893 17.2698143,33.0821248 16.8743856,33.7533412 C16.4789569,34.4245576 16.4789569,35.2575016 16.8743856,35.928718 C17.2698143,36.5999344 17.9983701,37.0036699 18.7771345,36.9831427 C19.9606017,36.9831427 20.9199915,36.0237528 20.9199915,34.8402856 C20.9199915,33.6568183 19.9606017,32.6974284 18.7771345,32.6974284 L18.7771345,32.6989165 Z M29.7890392,29.1423688 C27.1496423,29.1382766 25.0105477,27.0005127 25.004813,24.3611188 C25.0097266,21.7217235 27.1481558,19.5832943 29.7875511,19.5783807 C32.4269465,19.5832943 34.5653757,21.7217235 34.5702892,24.3611188 C34.5653757,27.0005142 32.4269465,29.1389434 29.7875511,29.1438569 L29.7890392,29.1423688 Z M29.7890392,22.2182617 C28.6055719,22.2182617 27.6461821,23.1776515 27.6461821,24.3611189 C27.6461821,25.5445862 28.6055719,26.503976 29.7890392,26.503976 C30.9725066,26.503976 31.9318964,25.5445862 31.9318964,24.3611189 C31.9318964,23.1776515 30.9725066,22.2182617 29.7890392,22.2182617 Z M21.7637416,13.2599284 C21.2236739,13.2602337 20.7377734,12.9318621 20.5366326,12.430648 C20.3354918,11.9294338 20.4595966,11.3562627 20.8500511,10.9831427 L26.1179083,5.94594031 C26.6488433,5.47656482 27.455514,5.50957078 27.9463283,6.02075244 C28.4371425,6.5319341 28.4373407,7.33927972 27.9467773,7.85070221 L22.6789202,12.8893927 C22.4342179,13.1282612 22.1057025,13.2618041 21.7637416,13.2614173 L21.7637416,13.2599284 Z M27.3589797,23.2093331 C27.0296451,23.2094338 26.7121968,23.0862766 26.4690988,22.864095 L20.2414202,17.1929641 C19.7046958,16.7001957 19.6648679,15.8671288 20.1521345,15.3254046 C20.6449029,14.7886802 21.4779698,14.7488523 22.019694,15.2361188 L28.2473726,20.9072498 C28.8368152,20.908446 29.3541896,21.2998966 29.5156062,21.8668082 C29.6770229,22.4337197 29.4434445,23.038989 28.9430382,23.3504977 C28.442632,23.6620064 27.7964173,23.6044185 27.3589797,23.2093331 L27.3589797,23.2093331 Z M21.379813,33.8819524 C20.8397453,33.8822575 20.3538449,33.5538859 20.152704,33.0526718 C19.9515632,32.5514576 20.0756681,31.9782865 20.4661226,31.6051665 L26.4497535,25.8759998 C26.9794856,25.3968732 27.7940712,25.4254104 28.2889756,25.9404328 C28.7838799,26.4554552 28.7799536,27.270531 28.2801107,27.7807617 L22.2935035,33.5099284 C22.0491697,33.7484368 21.721259,33.8819524 21.379813,33.8819524 L21.379813,33.8819524 Z" id="形状"></path>
                    </g>
                </g>
            </g>
        </g>
    </g>
</svg>