<?xml version="1.0" encoding="UTF-8"?>
<svg width="48px" height="50px" viewBox="0 0 48 50" version="1.1" xmlns="http://www.w3.org/2000/svg" xmlns:xlink="http://www.w3.org/1999/xlink">
    <!-- Generator: Sketch 61.2 (89653) - https://sketch.com -->
    <title>icon_Indus</title>
    <desc>Created with Sketch.</desc>
    <g id="页面-1" stroke="none" stroke-width="1" fill="none" fill-rule="evenodd">
        <g id="无线端index关于我们滑动交互" transform="translate(-56.000000, -5392.000000)" fill="#F04848" fill-rule="nonzero">
            <g id="解决方案*" transform="translate(0.000000, 3615.000000)">
                <g id="解决方案">
                    <g id="icon_Indus" transform="translate(56.000000, 1777.000000)">
                        <path d="M45.6184196,0.0350022576 L1.71160954,0.0350022576 C0.703545027,0.0350022576 0.0315020161,0.707045268 0.0315020161,1.71510978 L0.0315020161,13.2518481 C0.0315020161,14.1479055 0.815552178,14.9319556 1.71160954,14.9319556 L45.7304267,14.9319556 C46.6264841,14.9319556 47.4105343,14.1479055 47.4105343,13.2518481 L47.4105343,1.71510978 C47.2985271,0.707045268 46.5144769,0.0350022576 45.6184196,0.0350022576 Z M43.9383121,11.4597334 L3.39171707,11.4597334 L3.39171707,3.39521731 L44.0503192,3.39521731 L44.0503192,11.4597334 L43.9383121,11.4597334 Z" id="形状"></path>
                        <path d="M5.63186043,7.20346102 C5.63174748,7.88381355 5.99464635,8.51253355 6.5838301,8.85274243 C7.17301385,9.19295131 7.89895078,9.19295131 8.48813453,8.85274243 C9.07731827,8.51253355 9.44021714,7.88381355 9.44010419,7.20346102 C9.44021714,6.5231085 9.07731827,5.8943885 8.48813453,5.55417962 C7.89895078,5.21397074 7.17301385,5.21397074 6.5838301,5.55417962 C5.99464635,5.8943885 5.63174748,6.5231085 5.63186043,7.20346102 L5.63186043,7.20346102 Z" id="路径"></path>
                        <path d="M45.6184196,17.5081205 L1.71160954,17.5081205 C0.815552178,17.5081205 0.0315020161,18.2921707 0.0315020161,19.1882281 L0.0315020161,30.7249664 C0.0315020161,31.6210238 0.815552178,32.4050739 1.71160954,32.4050739 L18.7366992,32.4050739 C19.6327565,32.4050739 20.4168067,31.6210238 20.4168067,30.7249664 C20.4168067,29.828909 19.6327565,29.0448589 18.7366992,29.0448589 L3.39171707,29.0448589 L3.39171707,20.8683356 L44.0503192,20.8683356 L44.0503192,29.0448589 L43.7142977,29.0448589 C42.8182403,29.0448589 42.0341902,29.828909 42.0341902,30.7249664 C42.0341902,31.6210238 42.8182403,32.4050739 43.7142977,32.4050739 L45.7304267,32.4050739 C46.6264841,32.4050739 47.4105343,31.6210238 47.4105343,30.7249664 L47.4105343,19.1882281 C47.2985271,18.2921707 46.5144769,17.5081205 45.6184196,17.5081205 Z" id="路径"></path>
                        <path d="M5.63186043,24.9005937 C5.63174748,25.5809462 5.99464635,26.2096662 6.5838301,26.5498751 C7.17301385,26.8900839 7.89895078,26.8900839 8.48813453,26.5498751 C9.07731827,26.2096662 9.44021714,25.5809462 9.44010419,24.9005937 C9.44021714,24.2202411 9.07731827,23.5915211 8.48813453,23.2513122 C7.89895078,22.9111034 7.17301385,22.9111034 6.5838301,23.2513122 C5.99464635,23.5915211 5.63174748,24.2202411 5.63186043,24.9005937 L5.63186043,24.9005937 Z" id="路径"></path>
                        <path d="M12.2402834,46.5179772 L3.27970992,46.5179772 L3.27970992,38.3414539 L13.0243336,38.3414539 C13.9203909,38.3414539 14.7044411,37.5574037 14.7044411,36.6613463 C14.7044411,35.765289 13.9203909,34.9812388 13.0243336,34.9812388 L1.71160954,34.9812388 C0.815552178,34.9812388 0.0315020161,35.765289 0.0315020161,36.6613463 L0.0315020161,48.1980847 C0.0315020161,49.094142 0.815552178,49.8781922 1.71160954,49.8781922 L12.3522906,49.8781922 C13.2483479,49.8781922 14.0323981,49.094142 14.0323981,48.1980847 C14.0323981,47.3020273 13.2483479,46.5179772 12.2402834,46.5179772 Z" id="路径"></path>
                        <path d="M5.63186043,42.2617047 C5.63174748,42.9420573 5.99464635,43.5707773 6.5838301,43.9109861 C7.17301385,44.251195 7.89895078,44.251195 8.48813453,43.9109861 C9.07731827,43.5707773 9.44021714,42.9420573 9.44010419,42.2617047 C9.44021714,41.5813522 9.07731827,40.9526322 8.48813453,40.6124233 C7.89895078,40.2722144 7.17301385,40.2722144 6.5838301,40.6124233 C5.99464635,40.9526322 5.63174748,41.5813522 5.63186043,42.2617047 L5.63186043,42.2617047 Z" id="路径"></path>
                        <path d="M41.25014,37.3333894 C41.1381329,33.3011313 37.889925,30.0529234 33.8576669,30.0529234 C31.6175235,30.0529234 29.4893873,31.0609879 28.1453013,32.7410954 C27.3612512,32.4050739 26.5772009,32.2930668 25.7931508,32.2930668 C22.7689572,32.2930668 20.3047995,34.421203 19.7447637,37.3333894 C16.608563,37.5574037 14.0323981,40.2455758 14.0323981,43.3817765 C14.0323981,46.7419915 16.7205701,49.4301635 20.0807852,49.4301635 L41.25014,49.4301635 C44.6103551,49.4301635 47.2985271,46.7419915 47.2985271,43.3817765 C47.2985271,40.1335685 44.6103551,37.4453965 41.25014,37.3333894 L41.25014,37.3333894 Z M41.25014,46.1819556 L20.1927923,46.1819556 C18.7366992,46.1819556 17.5046203,44.9498768 17.5046203,43.4937836 C17.5046203,42.0376904 18.7366992,40.8056116 20.1927923,40.8056116 C20.4168067,40.8056116 20.640821,40.8056116 20.9768425,40.9176187 C21.5368784,41.0296259 22.0969142,40.9176187 22.5449429,40.5815972 C22.9929716,40.2455757 23.2169859,39.5735327 23.1049787,39.0134969 L23.1049787,38.5654682 C23.1049787,37.109375 24.3370576,35.8772961 25.7931508,35.8772961 C26.5772009,35.8772961 27.249244,36.2133176 27.5852655,36.5493391 C28.0332941,36.8853606 28.4813228,36.9973678 29.0413586,36.8853606 C29.6013945,36.7733535 30.0494231,36.437332 30.1614303,35.9893033 C30.8334734,34.5332102 32.2895665,33.6371528 33.8576669,33.6371528 C36.0978103,33.6371528 37.889925,35.4292675 37.889925,37.6694109 C37.889925,38.1174395 37.7779178,38.5654682 37.6659106,39.125504 C37.4418963,39.797547 37.5539035,40.4695901 38.1139393,40.9176187 C38.6739751,41.3656474 39.3460181,41.4776546 40.0180612,41.1416331 C41.922183,40.1335685 43.9383121,41.7016689 43.9383121,43.6057908 C43.9383121,44.9498768 42.7062332,46.1819556 41.25014,46.1819556 L41.25014,46.1819556 Z" id="形状"></path>
                    </g>
                </g>
            </g>
        </g>
    </g>
</svg>