<?xml version="1.0" encoding="UTF-8"?>
<svg width="52px" height="56px" viewBox="0 0 52 56" version="1.1" xmlns="http://www.w3.org/2000/svg" xmlns:xlink="http://www.w3.org/1999/xlink">
    <!-- Generator: Sketch 61.2 (89653) - https://sketch.com -->
    <title>icon_caidan</title>
    <desc>Created with Sketch.</desc>
    <g id="页面-1" stroke="none" stroke-width="1" fill="none" fill-rule="evenodd">
        <g id="无线端index关于我们滑动交互" transform="translate(-366.000000, -4387.000000)" fill="#F04848" fill-rule="nonzero">
            <g id="解决方案*" transform="translate(0.000000, 3615.000000)">
                <g id="解决方案">
                    <g id="icon_caidan" transform="translate(366.000000, 772.000000)">
                        <path d="M51.0546964,32.3119229 C51.0546964,30.1008079 49.2621893,28.3083629 47.0511364,28.3083629 C44.8400213,28.3083629 43.0475142,30.1007457 43.0475142,32.3119229 C43.0536515,33.8221056 43.911978,35.1993777 45.2650302,35.8701527 C45.2557706,35.9258345 45.2557706,35.9768555 45.2557706,36.0417969 L45.2557706,44.5592507 L20.3297674,51.953995 L3.61030717,39.9432528 L3.74018999,16.5620472 C3.74273793,15.5774858 2.94802912,14.7763761 1.96340554,14.7712802 L1.95408381,14.7712802 C0.973126776,14.7712802 0.175683594,15.5624467 0.168039773,16.5434659 L0.0242365057,40.8340376 C0.0242365057,41.4139737 0.29798473,41.9567472 0.771155895,42.2907138 L18.9704723,55.3591619 C19.4244902,55.6847504 20.0047,55.7791449 20.5385121,55.6142667 L47.5800515,47.5839045 C48.3373017,47.360396 48.8579466,46.6662027 48.8604847,45.8766602 L48.8604847,36.0417347 C48.8604847,35.9860529 48.8604847,35.9164506 48.851163,35.8700906 C50.1980332,35.1946243 51.050145,33.8186722 51.0546964,32.3119229 L51.0546964,32.3119229 Z M47.0465376,34.0237038 C46.1036754,34.0237038 45.3393555,33.2593839 45.3393555,32.3164595 C45.3393555,31.3736594 46.1036754,30.6092773 47.0465376,30.6092773 C47.9893999,30.6092773 48.753782,31.3736594 48.753782,32.3164595 C48.753782,33.2593839 47.9893999,34.0237038 47.0465376,34.0237038 Z" id="形状"></path>
                        <path d="M4.93243963,10.2573864 L27.1956587,4.14295099 L27.1956587,8.31821733 L10.6479048,12.3402965 C9.84225852,12.5207031 9.26977983,13.2359908 9.27009055,14.0614613 L9.27009055,31.4721591 L7.65562855,30.3726918 C6.84090909,29.8192294 5.73174716,30.0311435 5.1782848,30.8459251 C4.62488459,31.6606445 4.83673651,32.7697443 5.65151811,33.3231445 L18.8916726,42.2395685 C19.4371735,42.6166686 20.1496027,42.6508911 20.7287376,42.3278143 C21.3118329,42.0170633 21.6771489,41.4111791 21.6798029,40.7504528 L21.6798029,20.5006658 L45.1306108,14.7991832 L45.1306108,24.4392844 C45.1981623,25.3758079 45.9776456,26.101163 46.9166548,26.101163 C47.8556641,26.101163 48.6352095,25.3758079 48.7026989,24.4392844 L48.7026989,12.5445046 C48.7014622,11.9963678 48.4486147,11.4791494 48.016823,11.1414938 C47.5850312,10.8038381 47.022112,10.6831375 46.4898438,10.8140803 L39.8836559,12.4192827 L39.8836559,7.50641868 C39.882492,6.95825566 39.6296634,6.44098864 39.1978511,6.10331695 C38.7660388,5.76564525 38.2030769,5.6449746 37.6708008,5.77599432 L30.7631481,7.45533558 L30.7631481,1.8095348 C30.756923,1.25225774 30.4973783,0.728113752 30.0579279,0.38536044 C29.6111284,0.049265395 29.0342951,-0.0619877521 28.494549,0.0838334517 L3.98137429,6.81977983 C3.03061967,7.08377131 2.47249645,8.06708984 2.73350497,9.01877663 C3.00358665,9.96412464 3.98386009,10.516282 4.93243963,10.2573864 Z M36.3162287,9.76569602 L36.3162287,13.291424 L19.4762074,17.3738459 C18.6775213,17.5692915 18.113805,18.2822177 18.1075906,19.1042081 L18.1075906,37.4056907 L12.8745561,33.8751776 L12.8745561,15.457919 L36.3162287,9.76569602 L36.3162287,9.76569602 Z" id="形状"></path>
                    </g>
                </g>
            </g>
        </g>
    </g>
</svg>