<?xml version="1.0" encoding="UTF-8"?>
<svg width="51px" height="60px" viewBox="0 0 51 60" version="1.1" xmlns="http://www.w3.org/2000/svg" xmlns:xlink="http://www.w3.org/1999/xlink">
    <!-- Generator: Sketch 61.2 (89653) - https://sketch.com -->
    <title>icon_anquan</title>
    <desc>Created with Sketch.</desc>
    <g id="页面-1" stroke="none" stroke-width="1" fill="none" fill-rule="evenodd">
        <g id="无线端index关于我们滑动交互" transform="translate(-53.000000, -4387.000000)" fill="#F04848" fill-rule="nonzero">
            <g id="解决方案*" transform="translate(0.000000, 3615.000000)">
                <g id="解决方案">
                    <g id="icon_anquan" transform="translate(53.000000, 772.000000)">
                        <path d="M0.440816327,8.79489796 C9.37346939,9.03367347 17.9846939,5.43979592 25.1295918,0.284693878 C26.4734694,1.04387755 27.6642857,2.06326531 29.0265306,2.80714286 C31.1969388,4.20612245 33.5877551,5.20102041 35.9234694,6.2755102 C39.0061224,7.58265306 42.3091837,8.34795918 45.6336735,8.70918367 C47.1153061,8.89897959 48.6336735,8.61122449 50.0908163,9.00306122 C50.0663265,17.3387755 50.1,25.6744898 50.072449,34.0102041 C49.9561224,39.0336735 47.5255102,43.6806122 44.4581633,47.5408163 C41.3846939,51.3826531 37.6285714,54.7132653 33.3397959,57.1438776 C30.627551,58.6193878 27.6428571,59.9326531 24.4836735,59.7581633 C20.4520408,59.3816327 16.8489796,57.2693878 13.5887755,55.0010204 C8.5744898,51.2387755 4.12346939,46.4357143 1.68673469,40.5918367 C0.77755102,38.4 0.281632653,36.0397959 0.278571429,33.6642857 C0.263265306,25.9071429 0.290816327,18.15 0.266326531,10.3897959 C0.266326531,9.85408163 0.352040816,9.3244898 0.440816327,8.79489796 M19.2244898,7.96836735 C16.7846939,9.01530612 14.4214286,10.2734694 11.8346939,10.9316327 C9.25408163,11.8010204 6.55714286,12.2142857 3.8755102,12.6091837 C3.88163265,19.0163265 3.8755102,25.4234694 3.87857143,31.8336735 C3.89081633,33.2663265 3.78367347,34.7142857 4.08367347,36.1255102 C4.4755102,38.4428571 5.48265306,40.6010204 6.69489796,42.5938776 C9.03979592,46.3591837 12.2387755,49.5214286 15.7591837,52.1877551 C17.9081633,53.7336735 20.1612245,55.227551 22.7204082,55.9867347 C23.7795918,56.3357143 24.9153061,56.6234694 26.0295918,56.3602041 C30.5020408,55.3928571 34.2581633,52.5397959 37.6010204,49.5489796 C40.7755102,46.5979592 43.6714286,43.172449 45.2295918,39.0765306 C46.1908163,36.7959184 46.3591837,34.2734694 46.2979592,31.8244898 C46.3040816,25.4602041 46.2795918,19.0989796 46.3102041,12.7346939 C43.227551,12.0887755 40.0683673,11.6877551 37.0867347,10.6255102 C32.9112245,9.05510204 28.9438776,6.99183673 25.1204082,4.70816327 C23.2377551,5.93877551 21.2479592,6.99489796 19.2244898,7.96836735 L19.2244898,7.96836735 Z" id="形状"></path>
                        <path d="M23.2622449,35.8408163 C27.6826531,31.077551 32.0173469,26.2316327 36.3887755,21.422449 C37.6040816,22.2214286 38.8040816,23.072449 39.7867347,24.15 C34.4693878,30.1285714 29.1642857,36.1163265 23.8255102,42.0734694 C21.1959184,40.2153061 18.7530612,38.1 16.1969388,36.1408163 C15.1989796,35.344898 14.1520408,34.6040816 13.2336735,33.7132653 C14.1459184,32.5469388 15.0306122,31.3377551 16.172449,30.3826531 C18.5204082,32.222449 20.8408163,34.0989796 23.2622449,35.8408163 Z" id="路径"></path>
                    </g>
                </g>
            </g>
        </g>
    </g>
</svg>