<?xml version="1.0" encoding="UTF-8"?>
<svg width="55px" height="60px" viewBox="0 0 55 60" version="1.1" xmlns="http://www.w3.org/2000/svg" xmlns:xlink="http://www.w3.org/1999/xlink">
    <!-- Generator: Sketch 61.2 (89653) - https://sketch.com -->
    <title>icon_weiruan</title>
    <desc>Created with Sketch.</desc>
    <g id="页面-1" stroke="none" stroke-width="1" fill="none" fill-rule="evenodd">
        <g id="无线端index关于我们滑动交互" transform="translate(-52.000000, -5606.000000)" fill="#F04848" fill-rule="nonzero">
            <g id="解决方案*" transform="translate(0.000000, 3615.000000)">
                <g id="解决方案">
                    <g id="icon_weiruan" transform="translate(52.000000, 1991.000000)">
                        <path d="M28.906764,34.5209704 L51.3466283,34.5487253 L51.3466283,56.6000206 L28.906764,53.5747327 L28.906764,34.5209704 M26.1312706,31.745477 L26.1312706,56.0032895 L54.1221217,59.7779605 L54.1221217,31.7871094 L26.1312706,31.745477 Z M2.77549342,34.4932155 L19.6227385,34.5209704 L19.6227385,52.0204564 L2.77549342,49.6751645 L2.77549342,34.4932155 M0,31.717722 L0,52.1037212 L22.3982319,55.2122738 L22.3982319,31.7593544 L0,31.717722 L0,31.717722 Z M51.3466283,3.29666941 L51.3466283,25.2785773 L28.906764,25.2508224 L28.906764,6.76603618 L51.3466283,3.29666941 M54.1221217,0.0493421053 L26.1312706,4.37911184 L26.1312706,28.0124383 L54.1221217,28.0540707 L54.1221217,0.0493421053 Z M19.6227385,8.26480263 L19.6227385,25.2230674 L2.77549342,25.20919 L2.77549342,10.6100946 L19.6227385,8.26480263 M22.3982319,5.0729852 L0,8.1954153 L0,27.9846834 L22.3982319,28.0124383 L22.3982319,5.0729852 Z" id="形状"></path>
                    </g>
                </g>
            </g>
        </g>
    </g>
</svg>